<svg width="25" height="29" xmlns="http://www.w3.org/2000/svg" xmlns:xlink="http://www.w3.org/1999/xlink" xmlns:svgjs="http://svgjs.com/svgjs" viewBox="0.071 0 24.857 29" fill="#1397c3"><svg xmlns="http://www.w3.org/2000/svg" width="25" height="29" viewBox="2 2 24 28"><path paint-order="stroke fill markers" fill-rule="evenodd" d="M6.91 14.884V13.77h4.363v1.115H6.909zm1.635 3.346v-1.115h1.091v1.115h-1.09zm10.364 1.674c-1.203 0-2.182-1.001-2.182-2.23 0-1.231.979-2.232 2.182-2.232 1.203 0 2.182 1 2.182 2.231 0 1.23-.979 2.231-2.182 2.231zm0-3.347c-.602 0-1.09.501-1.09 1.116 0 .615.488 1.115 1.09 1.115.602 0 1.091-.5 1.091-1.115s-.49-1.116-1.09-1.116zM14 30c-4.628 0-8.13-5.027-9.549-10.01l-.043-.153-.15-.039C2.926 19.45 2 18.231 2 16.837c0-1.086.575-2.1 1.5-2.647l.136-.08V2H14c2.731 0 5.253 1.074 7.1 3.026 1.971 2.081 3.093 5.012 3.246 8.476l.011.267H26v6.135h-2.425l-.058.2c-.754 2.593-2.006 4.99-3.527 6.751C18.213 28.912 16.142 30 14 30zM5.366 19.187c.658 2.555 1.74 4.817 3.128 6.54 1.396 1.734 3.002 2.8 4.643 3.083l.319.054V24.89l-.219-.044c-1.68-.351-2.923-1.819-3.044-3.547h1.094a2.787 2.787 0 0 0 1.805 2.35l.364.131V8.19H8v3.02l-3.273 3.347v.317l-.363.132a1.95 1.95 0 0 0-1.273 1.83c0 1.018.783 1.869 1.783 1.937l.391.027.1.387zm9.18 9.677l.318-.054c1.64-.283 3.244-1.348 4.64-3.078 1.387-1.72 2.469-3.978 3.128-6.528l.107-.416h2.171v-3.904h-1.636v-.558c0-6.348-3.31-10.733-8.432-11.175l-.296-.025v20.682h3.273v1.116h-3.273v3.94zM4.727 12.98l2.182-2.231V7.076h6.546V3.115H4.727v9.865zM20 13.2v-1.105h1.09v1.104H20zm-3.273 0v-1.105h1.091v1.104h-1.09z"/></svg></svg>