<svg xmlns="http://www.w3.org/2000/svg" width="11" height="14" viewBox="0 0 11 14">
  <defs>
    <style>
      .cls-1 {
        fill: #0842b7;
        fill-rule: evenodd;
      }
    </style>
  </defs>
  <path id="shape" class="cls-1" d="M10.225,7.432A3.733,3.733,0,0,0,8.183,6.317V6.242a2.97,2.97,0,0,0,1.39-1.176,3.345,3.345,0,0,0,.5-1.823,3.242,3.242,0,0,0-.365-1.561A2.658,2.658,0,0,0,8.608.6,4.308,4.308,0,0,0,7.144.106a16.45,16.45,0,0,0-2.3-.118H-0.011v14H5.495a8.825,8.825,0,0,0,2.36-.264,4.781,4.781,0,0,0,1.7-.883A3.738,3.738,0,0,0,10.6,11.536,4.1,4.1,0,0,0,10.992,9.7,3.243,3.243,0,0,0,10.225,7.432ZM6.41,4.756a1.127,1.127,0,0,1-.573.546,2.008,2.008,0,0,1-.735.2Q4.747,5.519,3.86,5.518H3.425V2.555h0.24q0.924,0,1.391.014a2.187,2.187,0,0,1,.808.164,1.041,1.041,0,0,1,.531.517,1.615,1.615,0,0,1,.171.7A1.95,1.95,0,0,1,6.41,4.756Zm0.808,5.79a1.394,1.394,0,0,1-.688.607,2.9,2.9,0,0,1-1.053.254q-0.518.019-1.866,0.019H3.425V7.915H4.063c0.616,0,1.107.006,1.474,0.015a2.639,2.639,0,0,1,.864.137,1.569,1.569,0,0,1,.776.555,1.744,1.744,0,0,1,.259,1.016A1.877,1.877,0,0,1,7.218,10.545Z"/>
</svg>
