<svg xmlns="http://www.w3.org/2000/svg" width="15" height="15" viewBox="0 0 15 15">
  <defs>
    <style>
      .cls-1 {
        fill: #0842b7;
        fill-rule: evenodd;
      }
    </style>
  </defs>
  <path id="shape" class="cls-1" d="M12.089,0h-9.2a2.9,2.9,0,0,0-2.9,2.9v9.2a2.9,2.9,0,0,0,2.9,2.9h9.2a2.9,2.9,0,0,0,2.9-2.9V2.9A2.9,2.9,0,0,0,12.089,0Zm0.831,1.729h0.331V4.269l-2.533.009L10.71,1.735ZM5.349,5.96a2.634,2.634,0,1,1-.5,1.54A2.638,2.638,0,0,1,5.349,5.96ZM13.526,12.1a1.44,1.44,0,0,1-1.437,1.438h-9.2A1.44,1.44,0,0,1,1.452,12.1V5.96H3.691a4.1,4.1,0,1,0,7.6,0h2.239V12.1Z"/>
</svg>
