<svg xmlns="http://www.w3.org/2000/svg" width="20" height="16" viewBox="0 0 20 16">
  <defs>
    <style>
      .cls-1 {
        fill: #0842b7;
        fill-rule: evenodd;
      }
    </style>
  </defs>
  <path id="shape" class="cls-1" d="M1.028,16.012A1.028,1.028,0,0,1,0,14.988V1.023A1.028,1.028,0,0,1,1.028,0H18.976A1.021,1.021,0,0,1,19.7.3a1,1,0,0,1,.3.722v14a1.064,1.064,0,0,1-1.069.985H1.028ZM16.731,14l-4.45-5.465L10.653,10.02a1.109,1.109,0,0,1-.67.23A1.023,1.023,0,0,1,9.3,10.014l-1.6-1.456L3.277,14H16.731ZM2.017,12.322L6.2,7.187,2.017,3.368v8.953Zm15.93-.052v-8.9L13.788,7.163ZM9.984,7.926L16.4,2.048H3.569Z"/>
</svg>
