<svg xmlns="http://www.w3.org/2000/svg" width="10" height="13" viewBox="0 0 10 13">
  <defs>
    <style>
      .cls-1 {
        fill: #0842b7;
        fill-rule: evenodd;
      }
    </style>
  </defs>
  <path id="shape" class="cls-1" d="M10,5.407a0.889,0.889,0,0,1-.3.662,0.931,0.931,0,0,1-.675.232A0.907,0.907,0,0,1,8.4,6L5.912,3.251v8.856a0.912,0.912,0,0,1-1.823,0V3.251L1.6,6a0.914,0.914,0,0,1-.625.3A0.923,0.923,0,0,1,.307,6.077,0.883,0.883,0,0,1,.228,4.816L4.317,0.3A0.927,0.927,0,0,1,5,0a0.915,0.915,0,0,1,.69.308l4.08,4.505A0.9,0.9,0,0,1,10,5.407Z"/>
</svg>
