<svg xmlns="http://www.w3.org/2000/svg" width="19" height="13" viewBox="0 0 19 13">
  <defs>
    <style>
      .cls-1 {
        fill: #0842b7;
        fill-rule: evenodd;
      }
    </style>
  </defs>
  <path id="shape" class="cls-1" d="M18.258,1.116C17.573,0.322,16.306,0,13.888,0H5.11C2.637,0,1.349.344,0.666,1.188,0,2.01,0,3.223,0,4.9V8.1C0,11.349.79,13,5.11,13h8.778c2.1,0,3.259-.285,4.011-0.985C18.67,11.3,19,10.127,19,8.1V4.9C19,3.131,18.947,1.912,18.258,1.116ZM12.2,6.941L8.211,8.967a0.628,0.628,0,0,1-.6-0.018,0.594,0.594,0,0,1-.3-0.51V4.4a0.6,0.6,0,0,1,.295-0.51,0.628,0.628,0,0,1,.6-0.019L12.2,5.884A0.588,0.588,0,0,1,12.2,6.941Z"/>
</svg>
